<?xml version="1.0" encoding="utf-8" standalone="no"?>
<!DOCTYPE svg PUBLIC "-//W3C//DTD SVG 1.1//EN"
  "http://www.w3.org/Graphics/SVG/1.1/DTD/svg11.dtd">
<svg xmlns:xlink="http://www.w3.org/1999/xlink" width="792pt" height="230.4pt" viewBox="0 0 792 230.4" xmlns="http://www.w3.org/2000/svg" version="1.1">
 <metadata>
  <rdf:RDF xmlns:dc="http://purl.org/dc/elements/1.1/" xmlns:cc="http://creativecommons.org/ns#" xmlns:rdf="http://www.w3.org/1999/02/22-rdf-syntax-ns#">
   <cc:Work>
    <dc:type rdf:resource="http://purl.org/dc/dcmitype/StillImage"/>
    <dc:date>2026-10-04T14:04:44.131833</dc:date>
    <dc:format>image/svg+xml</dc:format>
    <dc:creator>
     <cc:Agent>
      <dc:title>Matplotlib v3.11.2, https://matplotlib.org/</dc:title>
     </cc:Agent>
    </dc:creator>
   </cc:Work>
  </rdf:RDF>
 </metadata>
 <defs>
  <style type="text/css">*{stroke-linejoin: round; stroke-linecap: butt}</style>
 </defs>
 <g id="figure_1">
  <g id="patch_1">
   <path d="M 0 230.4 
L 792 230.4 
L 792 0 
L 0 0 
z
" style="fill: #ffffff"/>
  </g>
  <g id="axes_1">
   <g id="patch_2">
    <path d="M 37.24 202.6 
L 260.4 202.6 
L 260.4 25.917188 
L 37.24 25.917188 
z
" style="fill: #ffffff"/>
   </g>
   <g id="patch_3">
    <path d="M 47.383636 202.6 
L 52.455455 202.6 
L 52.455455 201.831647 
L 47.383636 201.831647 
z
" clip-path="url(#p02035815d8)" style="fill: #55a868"/>
   </g>
   <g id="patch_4">
    <path d="M 52.455455 202.6 
L 57.527273 202.6 
L 57.527273 191.458879 
L 52.455455 191.458879 
z
" clip-path="url(#p02035815d8)" style="fill: #55a868"/>
   </g>
   <g id="patch_5">
    <path d="M 57.527273 202.6 
L 62.599091 202.6 
L 62.599091 123.459623 
L 57.527273 123.459623 
z
" clip-path="url(#p02035815d8)" style="fill: #55a868"/>
   </g>
   <g id="patch_6">
    <path d="M 62.599091 202.6 
L 67.670909 202.6 
L 67.670909 34.330655 
L 62.599091 34.330655 
z
" clip-path="url(#p02035815d8)" style="fill: #55a868"/>
   </g>
   <g id="patch_7">
    <path d="M 67.670909 202.6 
L 72.742727 202.6 
L 72.742727 108.860913 
L 67.670909 108.860913 
z
" clip-path="url(#p02035815d8)" style="fill: #55a868"/>
   </g>
   <g id="patch_8">
    <path d="M 72.742727 202.6 
L 77.814545 202.6 
L 77.814545 181.854464 
L 72.742727 181.854464 
z
" clip-path="url(#p02035815d8)" style="fill: #55a868"/>
   </g>
   <g id="patch_9">
    <path d="M 77.814545 202.6 
L 82.886364 202.6 
L 82.886364 202.6 
L 77.814545 202.6 
z
" clip-path="url(#p02035815d8)" style="fill: #55a868"/>
   </g>
   <g id="patch_10">
    <path d="M 82.886364 202.6 
L 87.958182 202.6 
L 87.958182 202.6 
L 82.886364 202.6 
z
" clip-path="url(#p02035815d8)" style="fill: #55a868"/>
   </g>
   <g id="patch_11">
    <path d="M 87.958182 202.6 
L 93.03 202.6 
L 93.03 202.6 
L 87.958182 202.6 
z
" clip-path="url(#p02035815d8)" style="fill: #55a868"/>
   </g>
   <g id="patch_12">
    <path d="M 93.03 202.6 
L 98.101818 202.6 
L 98.101818 202.6 
L 93.03 202.6 
z
" clip-path="url(#p02035815d8)" style="fill: #55a868"/>
   </g>
   <g id="patch_13">
    <path d="M 98.101818 202.6 
L 103.173636 202.6 
L 103.173636 202.6 
L 98.101818 202.6 
z
" clip-path="url(#p02035815d8)" style="fill: #55a868"/>
   </g>
   <g id="patch_14">
    <path d="M 103.173636 202.6 
L 108.245455 202.6 
L 108.245455 202.6 
L 103.173636 202.6 
z
" clip-path="url(#p02035815d8)" style="fill: #55a868"/>
   </g>
   <g id="patch_15">
    <path d="M 108.245455 202.6 
L 113.317273 202.6 
L 113.317273 202.6 
L 108.245455 202.6 
z
" clip-path="url(#p02035815d8)" style="fill: #55a868"/>
   </g>
   <g id="patch_16">
    <path d="M 113.317273 202.6 
L 118.389091 202.6 
L 118.389091 202.6 
L 113.317273 202.6 
z
" clip-path="url(#p02035815d8)" style="fill: #55a868"/>
   </g>
   <g id="patch_17">
    <path d="M 118.389091 202.6 
L 123.460909 202.6 
L 123.460909 202.6 
L 118.389091 202.6 
z
" clip-path="url(#p02035815d8)" style="fill: #55a868"/>
   </g>
   <g id="patch_18">
    <path d="M 123.460909 202.6 
L 128.532727 202.6 
L 128.532727 202.6 
L 123.460909 202.6 
z
" clip-path="url(#p02035815d8)" style="fill: #55a868"/>
   </g>
   <g id="patch_19">
    <path d="M 128.532727 202.6 
L 133.604545 202.6 
L 133.604545 202.6 
L 128.532727 202.6 
z
" clip-path="url(#p02035815d8)" style="fill: #55a868"/>
   </g>
   <g id="patch_20">
    <path d="M 133.604545 202.6 
L 138.676364 202.6 
L 138.676364 202.6 
L 133.604545 202.6 
z
" clip-path="url(#p02035815d8)" style="fill: #55a868"/>
   </g>
   <g id="patch_21">
    <path d="M 138.676364 202.6 
L 143.748182 202.6 
L 143.748182 202.6 
L 138.676364 202.6 
z
" clip-path="url(#p02035815d8)" style="fill: #55a868"/>
   </g>
   <g id="patch_22">
    <path d="M 143.748182 202.6 
L 148.82 202.6 
L 148.82 202.6 
L 143.748182 202.6 
z
" clip-path="url(#p02035815d8)" style="fill: #55a868"/>
   </g>
   <g id="patch_23">
    <path d="M 148.82 202.6 
L 153.891818 202.6 
L 153.891818 202.6 
L 148.82 202.6 
z
" clip-path="url(#p02035815d8)" style="fill: #55a868"/>
   </g>
   <g id="patch_24">
    <path d="M 153.891818 202.6 
L 158.963636 202.6 
L 158.963636 202.6 
L 153.891818 202.6 
z
" clip-path="url(#p02035815d8)" style="fill: #55a868"/>
   </g>
   <g id="patch_25">
    <path d="M 158.963636 202.6 
L 164.035455 202.6 
L 164.035455 202.6 
L 158.963636 202.6 
z
" clip-path="url(#p02035815d8)" style="fill: #55a868"/>
   </g>
   <g id="patch_26">
    <path d="M 164.035455 202.6 
L 169.107273 202.6 
L 169.107273 202.6 
L 164.035455 202.6 
z
" clip-path="url(#p02035815d8)" style="fill: #55a868"/>
   </g>
   <g id="patch_27">
    <path d="M 169.107273 202.6 
L 174.179091 202.6 
L 174.179091 202.6 
L 169.107273 202.6 
z
" clip-path="url(#p02035815d8)" style="fill: #55a868"/>
   </g>
   <g id="patch_28">
    <path d="M 174.179091 202.6 
L 179.250909 202.6 
L 179.250909 202.6 
L 174.179091 202.6 
z
" clip-path="url(#p02035815d8)" style="fill: #55a868"/>
   </g>
   <g id="patch_29">
    <path d="M 179.250909 202.6 
L 184.322727 202.6 
L 184.322727 202.6 
L 179.250909 202.6 
z
" clip-path="url(#p02035815d8)" style="fill: #55a868"/>
   </g>
   <g id="patch_30">
    <path d="M 184.322727 202.6 
L 189.394545 202.6 
L 189.394545 202.6 
L 184.322727 202.6 
z
" clip-path="url(#p02035815d8)" style="fill: #55a868"/>
   </g>
   <g id="patch_31">
    <path d="M 189.394545 202.6 
L 194.466364 202.6 
L 194.466364 202.6 
L 189.394545 202.6 
z
" clip-path="url(#p02035815d8)" style="fill: #55a868"/>
   </g>
   <g id="patch_32">
    <path d="M 194.466364 202.6 
L 199.538182 202.6 
L 199.538182 202.6 
L 194.466364 202.6 
z
" clip-path="url(#p02035815d8)" style="fill: #55a868"/>
   </g>
   <g id="patch_33">
    <path d="M 199.538182 202.6 
L 204.61 202.6 
L 204.61 202.6 
L 199.538182 202.6 
z
" clip-path="url(#p02035815d8)" style="fill: #55a868"/>
   </g>
   <g id="patch_34">
    <path d="M 204.61 202.6 
L 209.681818 202.6 
L 209.681818 202.6 
L 204.61 202.6 
z
" clip-path="url(#p02035815d8)" style="fill: #55a868"/>
   </g>
   <g id="patch_35">
    <path d="M 209.681818 202.6 
L 214.753636 202.6 
L 214.753636 202.6 
L 209.681818 202.6 
z
" clip-path="url(#p02035815d8)" style="fill: #55a868"/>
   </g>
   <g id="patch_36">
    <path d="M 214.753636 202.6 
L 219.825455 202.6 
L 219.825455 202.215823 
L 214.753636 202.215823 
z
" clip-path="url(#p02035815d8)" style="fill: #55a868"/>
   </g>
   <g id="patch_37">
    <path d="M 219.825455 202.6 
L 224.897273 202.6 
L 224.897273 197.221528 
L 219.825455 197.221528 
z
" clip-path="url(#p02035815d8)" style="fill: #55a868"/>
   </g>
   <g id="patch_38">
    <path d="M 224.897273 202.6 
L 229.969091 202.6 
L 229.969091 147.278571 
L 224.897273 147.278571 
z
" clip-path="url(#p02035815d8)" style="fill: #55a868"/>
   </g>
   <g id="patch_39">
    <path d="M 229.969091 202.6 
L 235.040909 202.6 
L 235.040909 42.014187 
L 229.969091 42.014187 
z
" clip-path="url(#p02035815d8)" style="fill: #55a868"/>
   </g>
   <g id="patch_40">
    <path d="M 235.040909 202.6 
L 240.112727 202.6 
L 240.112727 76.205903 
L 235.040909 76.205903 
z
" clip-path="url(#p02035815d8)" style="fill: #55a868"/>
   </g>
   <g id="patch_41">
    <path d="M 240.112727 202.6 
L 245.184545 202.6 
L 245.184545 160.340575 
L 240.112727 160.340575 
z
" clip-path="url(#p02035815d8)" style="fill: #55a868"/>
   </g>
   <g id="patch_42">
    <path d="M 245.184545 202.6 
L 250.256364 202.6 
L 250.256364 198.374058 
L 245.184545 198.374058 
z
" clip-path="url(#p02035815d8)" style="fill: #55a868"/>
   </g>
   <g id="matplotlib.axis_1">
    <g id="xtick_1">
     <g id="line2d_1">
      <defs>
       <path id="m970334d322" d="M 0 0 
L 0 3.5 
" style="stroke: #000000; stroke-width: 0.8"/>
      </defs>
      <g>
       <use xlink:href="#m970334d322" x="67.723763" y="202.6" style="stroke: #000000; stroke-width: 0.8"/>
      </g>
     </g>
     <g id="text_1">
      <!-- −1.0 -->
      <g transform="translate(55.582357 217.197656) scale(0.1 -0.1)">
       <defs>
        <path id="DejaVuSans-c9c" d="M 678 2272 
L 4684 2272 
L 4684 1741 
L 678 1741 
L 678 2272 
z
" transform="scale(0.015625)"/>
        <path id="DejaVuSans-14" d="M 794 531 
L 1825 531 
L 1825 4091 
L 703 3866 
L 703 4441 
L 1819 4666 
L 2450 4666 
L 2450 531 
L 3481 531 
L 3481 0 
L 794 0 
L 794 531 
z
" transform="scale(0.015625)"/>
        <path id="DejaVuSans-11" d="M 684 794 
L 1344 794 
L 1344 0 
L 684 0 
L 684 794 
z
" transform="scale(0.015625)"/>
        <path id="DejaVuSans-13" d="M 2034 4250 
Q 1547 4250 1301 3770 
Q 1056 3291 1056 2328 
Q 1056 1369 1301 889 
Q 1547 409 2034 409 
Q 2525 409 2770 889 
Q 3016 1369 3016 2328 
Q 3016 3291 2770 3770 
Q 2525 4250 2034 4250 
z
M 2034 4750 
Q 2819 4750 3233 4129 
Q 3647 3509 3647 2328 
Q 3647 1150 3233 529 
Q 2819 -91 2034 -91 
Q 1250 -91 836 529 
Q 422 1150 422 2328 
Q 422 3509 836 4129 
Q 1250 4750 2034 4750 
z
" transform="scale(0.015625)"/>
       </defs>
       <use xlink:href="#DejaVuSans-c9c"/>
       <use xlink:href="#DejaVuSans-14" transform="translate(83.796875 0)"/>
       <use xlink:href="#DejaVuSans-11" transform="translate(147.421875 0)"/>
       <use xlink:href="#DejaVuSans-13" transform="translate(179.203125 0)"/>
      </g>
     </g>
    </g>
    <g id="xtick_2">
     <g id="line2d_2">
      <g>
       <use xlink:href="#m970334d322" x="110.01341" y="202.6" style="stroke: #000000; stroke-width: 0.8"/>
      </g>
     </g>
     <g id="text_2">
      <!-- −0.5 -->
      <g transform="translate(97.872004 217.197656) scale(0.1 -0.1)">
       <defs>
        <path id="DejaVuSans-18" d="M 691 4666 
L 3169 4666 
L 3169 4134 
L 1269 4134 
L 1269 2991 
Q 1406 3038 1543 3061 
Q 1681 3084 1819 3084 
Q 2600 3084 3056 2656 
Q 3513 2228 3513 1497 
Q 3513 744 3044 326 
Q 2575 -91 1722 -91 
Q 1428 -91 1123 -41 
Q 819 9 494 109 
L 494 744 
Q 775 591 1075 516 
Q 1375 441 1709 441 
Q 2250 441 2565 725 
Q 2881 1009 2881 1497 
Q 2881 1984 2565 2268 
Q 2250 2553 1709 2553 
Q 1456 2553 1204 2497 
Q 953 2441 691 2322 
L 691 4666 
z
" transform="scale(0.015625)"/>
       </defs>
       <use xlink:href="#DejaVuSans-c9c"/>
       <use xlink:href="#DejaVuSans-13" transform="translate(83.796875 0)"/>
       <use xlink:href="#DejaVuSans-11" transform="translate(147.421875 0)"/>
       <use xlink:href="#DejaVuSans-18" transform="translate(179.203125 0)"/>
      </g>
     </g>
    </g>
    <g id="xtick_3">
     <g id="line2d_3">
      <g>
       <use xlink:href="#m970334d322" x="152.303058" y="202.6" style="stroke: #000000; stroke-width: 0.8"/>
      </g>
     </g>
     <g id="text_3">
      <!-- 0.0 -->
      <g transform="translate(144.351495 217.197656) scale(0.1 -0.1)">
       <use xlink:href="#DejaVuSans-13"/>
       <use xlink:href="#DejaVuSans-11" transform="translate(63.625 0)"/>
       <use xlink:href="#DejaVuSans-13" transform="translate(95.40625 0)"/>
      </g>
     </g>
    </g>
    <g id="xtick_4">
     <g id="line2d_4">
      <g>
       <use xlink:href="#m970334d322" x="194.592705" y="202.6" style="stroke: #000000; stroke-width: 0.8"/>
      </g>
     </g>
     <g id="text_4">
      <!-- 0.5 -->
      <g transform="translate(186.641142 217.197656) scale(0.1 -0.1)">
       <use xlink:href="#DejaVuSans-13"/>
       <use xlink:href="#DejaVuSans-11" transform="translate(63.625 0)"/>
       <use xlink:href="#DejaVuSans-18" transform="translate(95.40625 0)"/>
      </g>
     </g>
    </g>
    <g id="xtick_5">
     <g id="line2d_5">
      <g>
       <use xlink:href="#m970334d322" x="236.882352" y="202.6" style="stroke: #000000; stroke-width: 0.8"/>
      </g>
     </g>
     <g id="text_5">
      <!-- 1.0 -->
      <g transform="translate(228.93079 217.197656) scale(0.1 -0.1)">
       <use xlink:href="#DejaVuSans-14"/>
       <use xlink:href="#DejaVuSans-11" transform="translate(63.625 0)"/>
       <use xlink:href="#DejaVuSans-13" transform="translate(95.40625 0)"/>
      </g>
     </g>
    </g>
   </g>
   <g id="matplotlib.axis_2">
    <g id="ytick_1">
     <g id="line2d_6">
      <defs>
       <path id="mb353b8be48" d="M 0 0 
L -3.5 0 
" style="stroke: #000000; stroke-width: 0.8"/>
      </defs>
      <g>
       <use xlink:href="#mb353b8be48" x="37.24" y="202.6" style="stroke: #000000; stroke-width: 0.8"/>
      </g>
     </g>
     <g id="text_6">
      <!-- 0 -->
      <g transform="translate(23.8775 206.398828) scale(0.1 -0.1)">
       <use xlink:href="#DejaVuSans-13"/>
      </g>
     </g>
    </g>
    <g id="ytick_2">
     <g id="line2d_7">
      <g>
       <use xlink:href="#mb353b8be48" x="37.24" y="164.182341" style="stroke: #000000; stroke-width: 0.8"/>
      </g>
     </g>
     <g id="text_7">
      <!-- 100 -->
      <g transform="translate(11.1525 167.981169) scale(0.1 -0.1)">
       <use xlink:href="#DejaVuSans-14"/>
       <use xlink:href="#DejaVuSans-13" transform="translate(63.625 0)"/>
       <use xlink:href="#DejaVuSans-13" transform="translate(127.25 0)"/>
      </g>
     </g>
    </g>
    <g id="ytick_3">
     <g id="line2d_8">
      <g>
       <use xlink:href="#mb353b8be48" x="37.24" y="125.764683" style="stroke: #000000; stroke-width: 0.8"/>
      </g>
     </g>
     <g id="text_8">
      <!-- 200 -->
      <g transform="translate(11.1525 129.563511) scale(0.1 -0.1)">
       <defs>
        <path id="DejaVuSans-15" d="M 1228 531 
L 3431 531 
L 3431 0 
L 469 0 
L 469 531 
Q 828 903 1448 1529 
Q 2069 2156 2228 2338 
Q 2531 2678 2651 2914 
Q 2772 3150 2772 3378 
Q 2772 3750 2511 3984 
Q 2250 4219 1831 4219 
Q 1534 4219 1204 4116 
Q 875 4013 500 3803 
L 500 4441 
Q 881 4594 1212 4672 
Q 1544 4750 1819 4750 
Q 2544 4750 2975 4387 
Q 3406 4025 3406 3419 
Q 3406 3131 3298 2873 
Q 3191 2616 2906 2266 
Q 2828 2175 2409 1742 
Q 1991 1309 1228 531 
z
" transform="scale(0.015625)"/>
       </defs>
       <use xlink:href="#DejaVuSans-15"/>
       <use xlink:href="#DejaVuSans-13" transform="translate(63.625 0)"/>
       <use xlink:href="#DejaVuSans-13" transform="translate(127.25 0)"/>
      </g>
     </g>
    </g>
    <g id="ytick_4">
     <g id="line2d_9">
      <g>
       <use xlink:href="#mb353b8be48" x="37.24" y="87.347024" style="stroke: #000000; stroke-width: 0.8"/>
      </g>
     </g>
     <g id="text_9">
      <!-- 300 -->
      <g transform="translate(11.1525 91.145852) scale(0.1 -0.1)">
       <defs>
        <path id="DejaVuSans-16" d="M 2597 2516 
Q 3050 2419 3304 2112 
Q 3559 1806 3559 1356 
Q 3559 666 3084 287 
Q 2609 -91 1734 -91 
Q 1441 -91 1130 -33 
Q 819 25 488 141 
L 488 750 
Q 750 597 1062 519 
Q 1375 441 1716 441 
Q 2309 441 2620 675 
Q 2931 909 2931 1356 
Q 2931 1769 2642 2001 
Q 2353 2234 1838 2234 
L 1294 2234 
L 1294 2753 
L 1863 2753 
Q 2328 2753 2575 2939 
Q 2822 3125 2822 3475 
Q 2822 3834 2567 4026 
Q 2313 4219 1838 4219 
Q 1578 4219 1281 4162 
Q 984 4106 628 3988 
L 628 4550 
Q 988 4650 1302 4700 
Q 1616 4750 1894 4750 
Q 2613 4750 3031 4423 
Q 3450 4097 3450 3541 
Q 3450 3153 3228 2886 
Q 3006 2619 2597 2516 
z
" transform="scale(0.015625)"/>
       </defs>
       <use xlink:href="#DejaVuSans-16"/>
       <use xlink:href="#DejaVuSans-13" transform="translate(63.625 0)"/>
       <use xlink:href="#DejaVuSans-13" transform="translate(127.25 0)"/>
      </g>
     </g>
    </g>
    <g id="ytick_5">
     <g id="line2d_10">
      <g>
       <use xlink:href="#mb353b8be48" x="37.24" y="48.929365" style="stroke: #000000; stroke-width: 0.8"/>
      </g>
     </g>
     <g id="text_10">
      <!-- 400 -->
      <g transform="translate(11.1525 52.728193) scale(0.1 -0.1)">
       <defs>
        <path id="DejaVuSans-17" d="M 2419 4116 
L 825 1625 
L 2419 1625 
L 2419 4116 
z
M 2253 4666 
L 3047 4666 
L 3047 1625 
L 3713 1625 
L 3713 1100 
L 3047 1100 
L 3047 0 
L 2419 0 
L 2419 1100 
L 313 1100 
L 313 1709 
L 2253 4666 
z
" transform="scale(0.015625)"/>
       </defs>
       <use xlink:href="#DejaVuSans-17"/>
       <use xlink:href="#DejaVuSans-13" transform="translate(63.625 0)"/>
       <use xlink:href="#DejaVuSans-13" transform="translate(127.25 0)"/>
      </g>
     </g>
    </g>
   </g>
   <g id="patch_43">
    <path d="M 37.24 202.6 
L 37.24 25.917188 
" style="fill: none; stroke: #000000; stroke-width: 0.8; stroke-linejoin: miter; stroke-linecap: square"/>
   </g>
   <g id="patch_44">
    <path d="M 260.4 202.6 
L 260.4 25.917188 
" style="fill: none; stroke: #000000; stroke-width: 0.8; stroke-linejoin: miter; stroke-linecap: square"/>
   </g>
   <g id="patch_45">
    <path d="M 37.24 202.6 
L 260.4 202.6 
" style="fill: none; stroke: #000000; stroke-width: 0.8; stroke-linejoin: miter; stroke-linecap: square"/>
   </g>
   <g id="patch_46">
    <path d="M 37.24 25.917188 
L 260.4 25.917188 
" style="fill: none; stroke: #000000; stroke-width: 0.8; stroke-linejoin: miter; stroke-linecap: square"/>
   </g>
   <g id="text_11">
    <!-- IC1 -->
    <g transform="translate(139.042812 19.917188) scale(0.12 -0.12)">
     <defs>
      <path id="DejaVuSans-2c" d="M 628 4666 
L 1259 4666 
L 1259 0 
L 628 0 
L 628 4666 
z
" transform="scale(0.015625)"/>
      <path id="DejaVuSans-26" d="M 4122 4306 
L 4122 3641 
Q 3803 3938 3442 4084 
Q 3081 4231 2675 4231 
Q 1875 4231 1450 3742 
Q 1025 3253 1025 2328 
Q 1025 1406 1450 917 
Q 1875 428 2675 428 
Q 3081 428 3442 575 
Q 3803 722 4122 1019 
L 4122 359 
Q 3791 134 3420 21 
Q 3050 -91 2638 -91 
Q 1578 -91 968 557 
Q 359 1206 359 2328 
Q 359 3453 968 4101 
Q 1578 4750 2638 4750 
Q 3056 4750 3426 4639 
Q 3797 4528 4122 4306 
z
" transform="scale(0.015625)"/>
     </defs>
     <use xlink:href="#DejaVuSans-2c"/>
     <use xlink:href="#DejaVuSans-26" transform="translate(29.5 0)"/>
     <use xlink:href="#DejaVuSans-14" transform="translate(99.328125 0)"/>
    </g>
   </g>
  </g>
  <g id="axes_2">
   <g id="patch_47">
    <path d="M 297.64 202.6 
L 520.8 202.6 
L 520.8 25.917188 
L 297.64 25.917188 
z
" style="fill: #ffffff"/>
   </g>
   <g id="patch_48">
    <path d="M 307.783636 202.6 
L 312.855455 202.6 
L 312.855455 199.59519 
L 307.783636 199.59519 
z
" clip-path="url(#pb33d7f64c3)" style="fill: #55a868"/>
   </g>
   <g id="patch_49">
    <path d="M 312.855455 202.6 
L 317.927273 202.6 
L 317.927273 196.590381 
L 312.855455 196.590381 
z
" clip-path="url(#pb33d7f64c3)" style="fill: #55a868"/>
   </g>
   <g id="patch_50">
    <path d="M 317.927273 202.6 
L 322.999091 202.6 
L 322.999091 193.585571 
L 317.927273 193.585571 
z
" clip-path="url(#pb33d7f64c3)" style="fill: #55a868"/>
   </g>
   <g id="patch_51">
    <path d="M 322.999091 202.6 
L 328.070909 202.6 
L 328.070909 186.073546 
L 322.999091 186.073546 
z
" clip-path="url(#pb33d7f64c3)" style="fill: #55a868"/>
   </g>
   <g id="patch_52">
    <path d="M 328.070909 202.6 
L 333.142727 202.6 
L 333.142727 189.078356 
L 328.070909 189.078356 
z
" clip-path="url(#pb33d7f64c3)" style="fill: #55a868"/>
   </g>
   <g id="patch_53">
    <path d="M 333.142727 202.6 
L 338.214545 202.6 
L 338.214545 144.00621 
L 333.142727 144.00621 
z
" clip-path="url(#pb33d7f64c3)" style="fill: #55a868"/>
   </g>
   <g id="patch_54">
    <path d="M 338.214545 202.6 
L 343.286364 202.6 
L 343.286364 131.986971 
L 338.214545 131.986971 
z
" clip-path="url(#pb33d7f64c3)" style="fill: #55a868"/>
   </g>
   <g id="patch_55">
    <path d="M 343.286364 202.6 
L 348.358182 202.6 
L 348.358182 113.958113 
L 343.286364 113.958113 
z
" clip-path="url(#pb33d7f64c3)" style="fill: #55a868"/>
   </g>
   <g id="patch_56">
    <path d="M 348.358182 202.6 
L 353.43 202.6 
L 353.43 97.431659 
L 348.358182 97.431659 
z
" clip-path="url(#pb33d7f64c3)" style="fill: #55a868"/>
   </g>
   <g id="patch_57">
    <path d="M 353.43 202.6 
L 358.501818 202.6 
L 358.501818 34.330655 
L 353.43 34.330655 
z
" clip-path="url(#pb33d7f64c3)" style="fill: #55a868"/>
   </g>
   <g id="patch_58">
    <path d="M 358.501818 202.6 
L 363.573636 202.6 
L 363.573636 70.388372 
L 358.501818 70.388372 
z
" clip-path="url(#pb33d7f64c3)" style="fill: #55a868"/>
   </g>
   <g id="patch_59">
    <path d="M 363.573636 202.6 
L 368.645455 202.6 
L 368.645455 50.857108 
L 363.573636 50.857108 
z
" clip-path="url(#pb33d7f64c3)" style="fill: #55a868"/>
   </g>
   <g id="patch_60">
    <path d="M 368.645455 202.6 
L 373.717273 202.6 
L 373.717273 76.397991 
L 368.645455 76.397991 
z
" clip-path="url(#pb33d7f64c3)" style="fill: #55a868"/>
   </g>
   <g id="patch_61">
    <path d="M 373.717273 202.6 
L 378.789091 202.6 
L 378.789091 59.871538 
L 373.717273 59.871538 
z
" clip-path="url(#pb33d7f64c3)" style="fill: #55a868"/>
   </g>
   <g id="patch_62">
    <path d="M 378.789091 202.6 
L 383.860909 202.6 
L 383.860909 79.402801 
L 378.789091 79.402801 
z
" clip-path="url(#pb33d7f64c3)" style="fill: #55a868"/>
   </g>
   <g id="patch_63">
    <path d="M 383.860909 202.6 
L 388.932727 202.6 
L 388.932727 70.388372 
L 383.860909 70.388372 
z
" clip-path="url(#pb33d7f64c3)" style="fill: #55a868"/>
   </g>
   <g id="patch_64">
    <path d="M 388.932727 202.6 
L 394.004545 202.6 
L 394.004545 68.885967 
L 388.932727 68.885967 
z
" clip-path="url(#pb33d7f64c3)" style="fill: #55a868"/>
   </g>
   <g id="patch_65">
    <path d="M 394.004545 202.6 
L 399.076364 202.6 
L 399.076364 82.407611 
L 394.004545 82.407611 
z
" clip-path="url(#pb33d7f64c3)" style="fill: #55a868"/>
   </g>
   <g id="patch_66">
    <path d="M 399.076364 202.6 
L 404.148182 202.6 
L 404.148182 85.41242 
L 399.076364 85.41242 
z
" clip-path="url(#pb33d7f64c3)" style="fill: #55a868"/>
   </g>
   <g id="patch_67">
    <path d="M 404.148182 202.6 
L 409.22 202.6 
L 409.22 116.962923 
L 404.148182 116.962923 
z
" clip-path="url(#pb33d7f64c3)" style="fill: #55a868"/>
   </g>
   <g id="patch_68">
    <path d="M 409.22 202.6 
L 414.291818 202.6 
L 414.291818 104.943684 
L 409.22 104.943684 
z
" clip-path="url(#pb33d7f64c3)" style="fill: #55a868"/>
   </g>
   <g id="patch_69">
    <path d="M 414.291818 202.6 
L 419.363636 202.6 
L 419.363636 80.905206 
L 414.291818 80.905206 
z
" clip-path="url(#pb33d7f64c3)" style="fill: #55a868"/>
   </g>
   <g id="patch_70">
    <path d="M 419.363636 202.6 
L 424.435455 202.6 
L 424.435455 79.402801 
L 419.363636 79.402801 
z
" clip-path="url(#pb33d7f64c3)" style="fill: #55a868"/>
   </g>
   <g id="patch_71">
    <path d="M 424.435455 202.6 
L 429.507273 202.6 
L 429.507273 97.431659 
L 424.435455 97.431659 
z
" clip-path="url(#pb33d7f64c3)" style="fill: #55a868"/>
   </g>
   <g id="patch_72">
    <path d="M 429.507273 202.6 
L 434.579091 202.6 
L 434.579091 52.359513 
L 429.507273 52.359513 
z
" clip-path="url(#pb33d7f64c3)" style="fill: #55a868"/>
   </g>
   <g id="patch_73">
    <path d="M 434.579091 202.6 
L 439.650909 202.6 
L 439.650909 71.890776 
L 434.579091 71.890776 
z
" clip-path="url(#pb33d7f64c3)" style="fill: #55a868"/>
   </g>
   <g id="patch_74">
    <path d="M 439.650909 202.6 
L 444.722727 202.6 
L 444.722727 86.914825 
L 439.650909 86.914825 
z
" clip-path="url(#pb33d7f64c3)" style="fill: #55a868"/>
   </g>
   <g id="patch_75">
    <path d="M 444.722727 202.6 
L 449.794545 202.6 
L 449.794545 103.441279 
L 444.722727 103.441279 
z
" clip-path="url(#pb33d7f64c3)" style="fill: #55a868"/>
   </g>
   <g id="patch_76">
    <path d="M 449.794545 202.6 
L 454.866364 202.6 
L 454.866364 104.943684 
L 449.794545 104.943684 
z
" clip-path="url(#pb33d7f64c3)" style="fill: #55a868"/>
   </g>
   <g id="patch_77">
    <path d="M 454.866364 202.6 
L 459.938182 202.6 
L 459.938182 144.00621 
L 454.866364 144.00621 
z
" clip-path="url(#pb33d7f64c3)" style="fill: #55a868"/>
   </g>
   <g id="patch_78">
    <path d="M 459.938182 202.6 
L 465.01 202.6 
L 465.01 175.556712 
L 459.938182 175.556712 
z
" clip-path="url(#pb33d7f64c3)" style="fill: #55a868"/>
   </g>
   <g id="patch_79">
    <path d="M 465.01 202.6 
L 470.081818 202.6 
L 470.081818 168.044688 
L 465.01 168.044688 
z
" clip-path="url(#pb33d7f64c3)" style="fill: #55a868"/>
   </g>
   <g id="patch_80">
    <path d="M 470.081818 202.6 
L 475.153636 202.6 
L 475.153636 184.571142 
L 470.081818 184.571142 
z
" clip-path="url(#pb33d7f64c3)" style="fill: #55a868"/>
   </g>
   <g id="patch_81">
    <path d="M 475.153636 202.6 
L 480.225455 202.6 
L 480.225455 195.087976 
L 475.153636 195.087976 
z
" clip-path="url(#pb33d7f64c3)" style="fill: #55a868"/>
   </g>
   <g id="patch_82">
    <path d="M 480.225455 202.6 
L 485.297273 202.6 
L 485.297273 195.087976 
L 480.225455 195.087976 
z
" clip-path="url(#pb33d7f64c3)" style="fill: #55a868"/>
   </g>
   <g id="patch_83">
    <path d="M 485.297273 202.6 
L 490.369091 202.6 
L 490.369091 201.097595 
L 485.297273 201.097595 
z
" clip-path="url(#pb33d7f64c3)" style="fill: #55a868"/>
   </g>
   <g id="patch_84">
    <path d="M 490.369091 202.6 
L 495.440909 202.6 
L 495.440909 199.59519 
L 490.369091 199.59519 
z
" clip-path="url(#pb33d7f64c3)" style="fill: #55a868"/>
   </g>
   <g id="patch_85">
    <path d="M 495.440909 202.6 
L 500.512727 202.6 
L 500.512727 202.6 
L 495.440909 202.6 
z
" clip-path="url(#pb33d7f64c3)" style="fill: #55a868"/>
   </g>
   <g id="patch_86">
    <path d="M 500.512727 202.6 
L 505.584545 202.6 
L 505.584545 202.6 
L 500.512727 202.6 
z
" clip-path="url(#pb33d7f64c3)" style="fill: #55a868"/>
   </g>
   <g id="patch_87">
    <path d="M 505.584545 202.6 
L 510.656364 202.6 
L 510.656364 201.097595 
L 505.584545 201.097595 
z
" clip-path="url(#pb33d7f64c3)" style="fill: #55a868"/>
   </g>
   <g id="matplotlib.axis_3">
    <g id="xtick_6">
     <g id="line2d_11">
      <g>
       <use xlink:href="#m970334d322" x="323.059606" y="202.6" style="stroke: #000000; stroke-width: 0.8"/>
      </g>
     </g>
     <g id="text_12">
      <!-- −2 -->
      <g transform="translate(315.688512 217.197656) scale(0.1 -0.1)">
       <use xlink:href="#DejaVuSans-c9c"/>
       <use xlink:href="#DejaVuSans-15" transform="translate(83.796875 0)"/>
      </g>
     </g>
    </g>
    <g id="xtick_7">
     <g id="line2d_12">
      <g>
       <use xlink:href="#m970334d322" x="360.248182" y="202.6" style="stroke: #000000; stroke-width: 0.8"/>
      </g>
     </g>
     <g id="text_13">
      <!-- −1 -->
      <g transform="translate(352.877088 217.197656) scale(0.1 -0.1)">
       <use xlink:href="#DejaVuSans-c9c"/>
       <use xlink:href="#DejaVuSans-14" transform="translate(83.796875 0)"/>
      </g>
     </g>
    </g>
    <g id="xtick_8">
     <g id="line2d_13">
      <g>
       <use xlink:href="#m970334d322" x="397.436758" y="202.6" style="stroke: #000000; stroke-width: 0.8"/>
      </g>
     </g>
     <g id="text_14">
      <!-- 0 -->
      <g transform="translate(394.255508 217.197656) scale(0.1 -0.1)">
       <use xlink:href="#DejaVuSans-13"/>
      </g>
     </g>
    </g>
    <g id="xtick_9">
     <g id="line2d_14">
      <g>
       <use xlink:href="#m970334d322" x="434.625335" y="202.6" style="stroke: #000000; stroke-width: 0.8"/>
      </g>
     </g>
     <g id="text_15">
      <!-- 1 -->
      <g transform="translate(431.444085 217.197656) scale(0.1 -0.1)">
       <use xlink:href="#DejaVuSans-14"/>
      </g>
     </g>
    </g>
    <g id="xtick_10">
     <g id="line2d_15">
      <g>
       <use xlink:href="#m970334d322" x="471.813911" y="202.6" style="stroke: #000000; stroke-width: 0.8"/>
      </g>
     </g>
     <g id="text_16">
      <!-- 2 -->
      <g transform="translate(468.632661 217.197656) scale(0.1 -0.1)">
       <use xlink:href="#DejaVuSans-15"/>
      </g>
     </g>
    </g>
    <g id="xtick_11">
     <g id="line2d_16">
      <g>
       <use xlink:href="#m970334d322" x="509.002487" y="202.6" style="stroke: #000000; stroke-width: 0.8"/>
      </g>
     </g>
     <g id="text_17">
      <!-- 3 -->
      <g transform="translate(505.821237 217.197656) scale(0.1 -0.1)">
       <use xlink:href="#DejaVuSans-16"/>
      </g>
     </g>
    </g>
   </g>
   <g id="matplotlib.axis_4">
    <g id="ytick_6">
     <g id="line2d_17">
      <g>
       <use xlink:href="#mb353b8be48" x="297.64" y="202.6" style="stroke: #000000; stroke-width: 0.8"/>
      </g>
     </g>
     <g id="text_18">
      <!-- 0 -->
      <g transform="translate(284.2775 206.398828) scale(0.1 -0.1)">
       <use xlink:href="#DejaVuSans-13"/>
      </g>
     </g>
    </g>
    <g id="ytick_7">
     <g id="line2d_18">
      <g>
       <use xlink:href="#mb353b8be48" x="297.64" y="172.551903" style="stroke: #000000; stroke-width: 0.8"/>
      </g>
     </g>
     <g id="text_19">
      <!-- 20 -->
      <g transform="translate(277.915 176.350731) scale(0.1 -0.1)">
       <use xlink:href="#DejaVuSans-15"/>
       <use xlink:href="#DejaVuSans-13" transform="translate(63.625 0)"/>
      </g>
     </g>
    </g>
    <g id="ytick_8">
     <g id="line2d_19">
      <g>
       <use xlink:href="#mb353b8be48" x="297.64" y="142.503805" style="stroke: #000000; stroke-width: 0.8"/>
      </g>
     </g>
     <g id="text_20">
      <!-- 40 -->
      <g transform="translate(277.915 146.302633) scale(0.1 -0.1)">
       <use xlink:href="#DejaVuSans-17"/>
       <use xlink:href="#DejaVuSans-13" transform="translate(63.625 0)"/>
      </g>
     </g>
    </g>
    <g id="ytick_9">
     <g id="line2d_20">
      <g>
       <use xlink:href="#mb353b8be48" x="297.64" y="112.455708" style="stroke: #000000; stroke-width: 0.8"/>
      </g>
     </g>
     <g id="text_21">
      <!-- 60 -->
      <g transform="translate(277.915 116.254536) scale(0.1 -0.1)">
       <defs>
        <path id="DejaVuSans-19" d="M 2113 2584 
Q 1688 2584 1439 2293 
Q 1191 2003 1191 1497 
Q 1191 994 1439 701 
Q 1688 409 2113 409 
Q 2538 409 2786 701 
Q 3034 994 3034 1497 
Q 3034 2003 2786 2293 
Q 2538 2584 2113 2584 
z
M 3366 4563 
L 3366 3988 
Q 3128 4100 2886 4159 
Q 2644 4219 2406 4219 
Q 1781 4219 1451 3797 
Q 1122 3375 1075 2522 
Q 1259 2794 1537 2939 
Q 1816 3084 2150 3084 
Q 2853 3084 3261 2657 
Q 3669 2231 3669 1497 
Q 3669 778 3244 343 
Q 2819 -91 2113 -91 
Q 1303 -91 875 529 
Q 447 1150 447 2328 
Q 447 3434 972 4092 
Q 1497 4750 2381 4750 
Q 2619 4750 2861 4703 
Q 3103 4656 3366 4563 
z
" transform="scale(0.015625)"/>
       </defs>
       <use xlink:href="#DejaVuSans-19"/>
       <use xlink:href="#DejaVuSans-13" transform="translate(63.625 0)"/>
      </g>
     </g>
    </g>
    <g id="ytick_10">
     <g id="line2d_21">
      <g>
       <use xlink:href="#mb353b8be48" x="297.64" y="82.407611" style="stroke: #000000; stroke-width: 0.8"/>
      </g>
     </g>
     <g id="text_22">
      <!-- 80 -->
      <g transform="translate(277.915 86.206439) scale(0.1 -0.1)">
       <defs>
        <path id="DejaVuSans-1b" d="M 2034 2216 
Q 1584 2216 1326 1975 
Q 1069 1734 1069 1313 
Q 1069 891 1326 650 
Q 1584 409 2034 409 
Q 2484 409 2743 651 
Q 3003 894 3003 1313 
Q 3003 1734 2745 1975 
Q 2488 2216 2034 2216 
z
M 1403 2484 
Q 997 2584 770 2862 
Q 544 3141 544 3541 
Q 544 4100 942 4425 
Q 1341 4750 2034 4750 
Q 2731 4750 3128 4425 
Q 3525 4100 3525 3541 
Q 3525 3141 3298 2862 
Q 3072 2584 2669 2484 
Q 3125 2378 3379 2068 
Q 3634 1759 3634 1313 
Q 3634 634 3220 271 
Q 2806 -91 2034 -91 
Q 1263 -91 848 271 
Q 434 634 434 1313 
Q 434 1759 690 2068 
Q 947 2378 1403 2484 
z
M 1172 3481 
Q 1172 3119 1398 2916 
Q 1625 2713 2034 2713 
Q 2441 2713 2670 2916 
Q 2900 3119 2900 3481 
Q 2900 3844 2670 4047 
Q 2441 4250 2034 4250 
Q 1625 4250 1398 4047 
Q 1172 3844 1172 3481 
z
" transform="scale(0.015625)"/>
       </defs>
       <use xlink:href="#DejaVuSans-1b"/>
       <use xlink:href="#DejaVuSans-13" transform="translate(63.625 0)"/>
      </g>
     </g>
    </g>
    <g id="ytick_11">
     <g id="line2d_22">
      <g>
       <use xlink:href="#mb353b8be48" x="297.64" y="52.359513" style="stroke: #000000; stroke-width: 0.8"/>
      </g>
     </g>
     <g id="text_23">
      <!-- 100 -->
      <g transform="translate(271.5525 56.158341) scale(0.1 -0.1)">
       <use xlink:href="#DejaVuSans-14"/>
       <use xlink:href="#DejaVuSans-13" transform="translate(63.625 0)"/>
       <use xlink:href="#DejaVuSans-13" transform="translate(127.25 0)"/>
      </g>
     </g>
    </g>
   </g>
   <g id="patch_88">
    <path d="M 297.64 202.6 
L 297.64 25.917188 
" style="fill: none; stroke: #000000; stroke-width: 0.8; stroke-linejoin: miter; stroke-linecap: square"/>
   </g>
   <g id="patch_89">
    <path d="M 520.8 202.6 
L 520.8 25.917188 
" style="fill: none; stroke: #000000; stroke-width: 0.8; stroke-linejoin: miter; stroke-linecap: square"/>
   </g>
   <g id="patch_90">
    <path d="M 297.64 202.6 
L 520.8 202.6 
" style="fill: none; stroke: #000000; stroke-width: 0.8; stroke-linejoin: miter; stroke-linecap: square"/>
   </g>
   <g id="patch_91">
    <path d="M 297.64 25.917188 
L 520.8 25.917188 
" style="fill: none; stroke: #000000; stroke-width: 0.8; stroke-linejoin: miter; stroke-linecap: square"/>
   </g>
   <g id="text_24">
    <!-- IC2 -->
    <g transform="translate(399.442813 19.917188) scale(0.12 -0.12)">
     <use xlink:href="#DejaVuSans-2c"/>
     <use xlink:href="#DejaVuSans-26" transform="translate(29.5 0)"/>
     <use xlink:href="#DejaVuSans-15" transform="translate(99.328125 0)"/>
    </g>
   </g>
  </g>
  <g id="axes_3">
   <g id="patch_92">
    <path d="M 558.04 202.6 
L 781.2 202.6 
L 781.2 25.917188 
L 558.04 25.917188 
z
" style="fill: #ffffff"/>
   </g>
   <g id="patch_93">
    <path d="M 568.183636 202.6 
L 573.255455 202.6 
L 573.255455 199.66507 
L 568.183636 199.66507 
z
" clip-path="url(#p95c23a8bd1)" style="fill: #55a868"/>
   </g>
   <g id="patch_94">
    <path d="M 573.255455 202.6 
L 578.327273 202.6 
L 578.327273 202.6 
L 573.255455 202.6 
z
" clip-path="url(#p95c23a8bd1)" style="fill: #55a868"/>
   </g>
   <g id="patch_95">
    <path d="M 578.327273 202.6 
L 583.399091 202.6 
L 583.399091 202.6 
L 578.327273 202.6 
z
" clip-path="url(#p95c23a8bd1)" style="fill: #55a868"/>
   </g>
   <g id="patch_96">
    <path d="M 583.399091 202.6 
L 588.470909 202.6 
L 588.470909 200.64338 
L 583.399091 200.64338 
z
" clip-path="url(#p95c23a8bd1)" style="fill: #55a868"/>
   </g>
   <g id="patch_97">
    <path d="M 588.470909 202.6 
L 593.542727 202.6 
L 593.542727 197.708449 
L 588.470909 197.708449 
z
" clip-path="url(#p95c23a8bd1)" style="fill: #55a868"/>
   </g>
   <g id="patch_98">
    <path d="M 593.542727 202.6 
L 598.614545 202.6 
L 598.614545 201.62169 
L 593.542727 201.62169 
z
" clip-path="url(#p95c23a8bd1)" style="fill: #55a868"/>
   </g>
   <g id="patch_99">
    <path d="M 598.614545 202.6 
L 603.686364 202.6 
L 603.686364 201.62169 
L 598.614545 201.62169 
z
" clip-path="url(#p95c23a8bd1)" style="fill: #55a868"/>
   </g>
   <g id="patch_100">
    <path d="M 603.686364 202.6 
L 608.758182 202.6 
L 608.758182 202.6 
L 603.686364 202.6 
z
" clip-path="url(#p95c23a8bd1)" style="fill: #55a868"/>
   </g>
   <g id="patch_101">
    <path d="M 608.758182 202.6 
L 613.83 202.6 
L 613.83 199.66507 
L 608.758182 199.66507 
z
" clip-path="url(#p95c23a8bd1)" style="fill: #55a868"/>
   </g>
   <g id="patch_102">
    <path d="M 613.83 202.6 
L 618.901818 202.6 
L 618.901818 201.62169 
L 613.83 201.62169 
z
" clip-path="url(#p95c23a8bd1)" style="fill: #55a868"/>
   </g>
   <g id="patch_103">
    <path d="M 618.901818 202.6 
L 623.973636 202.6 
L 623.973636 197.708449 
L 618.901818 197.708449 
z
" clip-path="url(#p95c23a8bd1)" style="fill: #55a868"/>
   </g>
   <g id="patch_104">
    <path d="M 623.973636 202.6 
L 629.045455 202.6 
L 629.045455 196.730139 
L 623.973636 196.730139 
z
" clip-path="url(#p95c23a8bd1)" style="fill: #55a868"/>
   </g>
   <g id="patch_105">
    <path d="M 629.045455 202.6 
L 634.117273 202.6 
L 634.117273 194.773519 
L 629.045455 194.773519 
z
" clip-path="url(#p95c23a8bd1)" style="fill: #55a868"/>
   </g>
   <g id="patch_106">
    <path d="M 634.117273 202.6 
L 639.189091 202.6 
L 639.189091 194.773519 
L 634.117273 194.773519 
z
" clip-path="url(#p95c23a8bd1)" style="fill: #55a868"/>
   </g>
   <g id="patch_107">
    <path d="M 639.189091 202.6 
L 644.260909 202.6 
L 644.260909 189.881968 
L 639.189091 189.881968 
z
" clip-path="url(#p95c23a8bd1)" style="fill: #55a868"/>
   </g>
   <g id="patch_108">
    <path d="M 644.260909 202.6 
L 649.332727 202.6 
L 649.332727 184.012107 
L 644.260909 184.012107 
z
" clip-path="url(#p95c23a8bd1)" style="fill: #55a868"/>
   </g>
   <g id="patch_109">
    <path d="M 649.332727 202.6 
L 654.404545 202.6 
L 654.404545 189.881968 
L 649.332727 189.881968 
z
" clip-path="url(#p95c23a8bd1)" style="fill: #55a868"/>
   </g>
   <g id="patch_110">
    <path d="M 654.404545 202.6 
L 659.476364 202.6 
L 659.476364 177.163936 
L 654.404545 177.163936 
z
" clip-path="url(#p95c23a8bd1)" style="fill: #55a868"/>
   </g>
   <g id="patch_111">
    <path d="M 659.476364 202.6 
L 664.548182 202.6 
L 664.548182 174.229006 
L 659.476364 174.229006 
z
" clip-path="url(#p95c23a8bd1)" style="fill: #55a868"/>
   </g>
   <g id="patch_112">
    <path d="M 664.548182 202.6 
L 669.62 202.6 
L 669.62 167.380835 
L 664.548182 167.380835 
z
" clip-path="url(#p95c23a8bd1)" style="fill: #55a868"/>
   </g>
   <g id="patch_113">
    <path d="M 669.62 202.6 
L 674.691818 202.6 
L 674.691818 150.749562 
L 669.62 150.749562 
z
" clip-path="url(#p95c23a8bd1)" style="fill: #55a868"/>
   </g>
   <g id="patch_114">
    <path d="M 674.691818 202.6 
L 679.763636 202.6 
L 679.763636 140.966461 
L 674.691818 140.966461 
z
" clip-path="url(#p95c23a8bd1)" style="fill: #55a868"/>
   </g>
   <g id="patch_115">
    <path d="M 679.763636 202.6 
L 684.835455 202.6 
L 684.835455 129.226739 
L 679.763636 129.226739 
z
" clip-path="url(#p95c23a8bd1)" style="fill: #55a868"/>
   </g>
   <g id="patch_116">
    <path d="M 684.835455 202.6 
L 689.907273 202.6 
L 689.907273 91.072643 
L 684.835455 91.072643 
z
" clip-path="url(#p95c23a8bd1)" style="fill: #55a868"/>
   </g>
   <g id="patch_117">
    <path d="M 689.907273 202.6 
L 694.979091 202.6 
L 694.979091 83.246162 
L 689.907273 83.246162 
z
" clip-path="url(#p95c23a8bd1)" style="fill: #55a868"/>
   </g>
   <g id="patch_118">
    <path d="M 694.979091 202.6 
L 700.050909 202.6 
L 700.050909 34.330655 
L 694.979091 34.330655 
z
" clip-path="url(#p95c23a8bd1)" style="fill: #55a868"/>
   </g>
   <g id="patch_119">
    <path d="M 700.050909 202.6 
L 705.122727 202.6 
L 705.122727 53.896858 
L 700.050909 53.896858 
z
" clip-path="url(#p95c23a8bd1)" style="fill: #55a868"/>
   </g>
   <g id="patch_120">
    <path d="M 705.122727 202.6 
L 710.194545 202.6 
L 710.194545 154.662803 
L 705.122727 154.662803 
z
" clip-path="url(#p95c23a8bd1)" style="fill: #55a868"/>
   </g>
   <g id="patch_121">
    <path d="M 710.194545 202.6 
L 715.266364 202.6 
L 715.266364 161.510974 
L 710.194545 161.510974 
z
" clip-path="url(#p95c23a8bd1)" style="fill: #55a868"/>
   </g>
   <g id="patch_122">
    <path d="M 715.266364 202.6 
L 720.338182 202.6 
L 720.338182 161.510974 
L 715.266364 161.510974 
z
" clip-path="url(#p95c23a8bd1)" style="fill: #55a868"/>
   </g>
   <g id="patch_123">
    <path d="M 720.338182 202.6 
L 725.41 202.6 
L 725.41 129.226739 
L 720.338182 129.226739 
z
" clip-path="url(#p95c23a8bd1)" style="fill: #55a868"/>
   </g>
   <g id="patch_124">
    <path d="M 725.41 202.6 
L 730.481818 202.6 
L 730.481818 112.595467 
L 725.41 112.595467 
z
" clip-path="url(#p95c23a8bd1)" style="fill: #55a868"/>
   </g>
   <g id="patch_125">
    <path d="M 730.481818 202.6 
L 735.553636 202.6 
L 735.553636 84.224472 
L 730.481818 84.224472 
z
" clip-path="url(#p95c23a8bd1)" style="fill: #55a868"/>
   </g>
   <g id="patch_126">
    <path d="M 735.553636 202.6 
L 740.625455 202.6 
L 740.625455 139.988151 
L 735.553636 139.988151 
z
" clip-path="url(#p95c23a8bd1)" style="fill: #55a868"/>
   </g>
   <g id="patch_127">
    <path d="M 740.625455 202.6 
L 745.697273 202.6 
L 745.697273 146.836322 
L 740.625455 146.836322 
z
" clip-path="url(#p95c23a8bd1)" style="fill: #55a868"/>
   </g>
   <g id="patch_128">
    <path d="M 745.697273 202.6 
L 750.769091 202.6 
L 750.769091 107.703916 
L 745.697273 107.703916 
z
" clip-path="url(#p95c23a8bd1)" style="fill: #55a868"/>
   </g>
   <g id="patch_129">
    <path d="M 750.769091 202.6 
L 755.840909 202.6 
L 755.840909 110.638846 
L 750.769091 110.638846 
z
" clip-path="url(#p95c23a8bd1)" style="fill: #55a868"/>
   </g>
   <g id="patch_130">
    <path d="M 755.840909 202.6 
L 760.912727 202.6 
L 760.912727 68.57151 
L 755.840909 68.57151 
z
" clip-path="url(#p95c23a8bd1)" style="fill: #55a868"/>
   </g>
   <g id="patch_131">
    <path d="M 760.912727 202.6 
L 765.984545 202.6 
L 765.984545 54.875168 
L 760.912727 54.875168 
z
" clip-path="url(#p95c23a8bd1)" style="fill: #55a868"/>
   </g>
   <g id="patch_132">
    <path d="M 765.984545 202.6 
L 771.056364 202.6 
L 771.056364 154.662803 
L 765.984545 154.662803 
z
" clip-path="url(#p95c23a8bd1)" style="fill: #55a868"/>
   </g>
   <g id="matplotlib.axis_5">
    <g id="xtick_12">
     <g id="line2d_23">
      <g>
       <use xlink:href="#m970334d322" x="572.654392" y="202.6" style="stroke: #000000; stroke-width: 0.8"/>
      </g>
     </g>
     <g id="text_25">
      <!-- −4 -->
      <g transform="translate(565.283298 217.197656) scale(0.1 -0.1)">
       <use xlink:href="#DejaVuSans-c9c"/>
       <use xlink:href="#DejaVuSans-17" transform="translate(83.796875 0)"/>
      </g>
     </g>
    </g>
    <g id="xtick_13">
     <g id="line2d_24">
      <g>
       <use xlink:href="#m970334d322" x="608.168" y="202.6" style="stroke: #000000; stroke-width: 0.8"/>
      </g>
     </g>
     <g id="text_26">
      <!-- −3 -->
      <g transform="translate(600.796906 217.197656) scale(0.1 -0.1)">
       <use xlink:href="#DejaVuSans-c9c"/>
       <use xlink:href="#DejaVuSans-16" transform="translate(83.796875 0)"/>
      </g>
     </g>
    </g>
    <g id="xtick_14">
     <g id="line2d_25">
      <g>
       <use xlink:href="#m970334d322" x="643.681609" y="202.6" style="stroke: #000000; stroke-width: 0.8"/>
      </g>
     </g>
     <g id="text_27">
      <!-- −2 -->
      <g transform="translate(636.310515 217.197656) scale(0.1 -0.1)">
       <use xlink:href="#DejaVuSans-c9c"/>
       <use xlink:href="#DejaVuSans-15" transform="translate(83.796875 0)"/>
      </g>
     </g>
    </g>
    <g id="xtick_15">
     <g id="line2d_26">
      <g>
       <use xlink:href="#m970334d322" x="679.195217" y="202.6" style="stroke: #000000; stroke-width: 0.8"/>
      </g>
     </g>
     <g id="text_28">
      <!-- −1 -->
      <g transform="translate(671.824123 217.197656) scale(0.1 -0.1)">
       <use xlink:href="#DejaVuSans-c9c"/>
       <use xlink:href="#DejaVuSans-14" transform="translate(83.796875 0)"/>
      </g>
     </g>
    </g>
    <g id="xtick_16">
     <g id="line2d_27">
      <g>
       <use xlink:href="#m970334d322" x="714.708825" y="202.6" style="stroke: #000000; stroke-width: 0.8"/>
      </g>
     </g>
     <g id="text_29">
      <!-- 0 -->
      <g transform="translate(711.527575 217.197656) scale(0.1 -0.1)">
       <use xlink:href="#DejaVuSans-13"/>
      </g>
     </g>
    </g>
    <g id="xtick_17">
     <g id="line2d_28">
      <g>
       <use xlink:href="#m970334d322" x="750.222434" y="202.6" style="stroke: #000000; stroke-width: 0.8"/>
      </g>
     </g>
     <g id="text_30">
      <!-- 1 -->
      <g transform="translate(747.041184 217.197656) scale(0.1 -0.1)">
       <use xlink:href="#DejaVuSans-14"/>
      </g>
     </g>
    </g>
   </g>
   <g id="matplotlib.axis_6">
    <g id="ytick_12">
     <g id="line2d_29">
      <g>
       <use xlink:href="#mb353b8be48" x="558.04" y="202.6" style="stroke: #000000; stroke-width: 0.8"/>
      </g>
     </g>
     <g id="text_31">
      <!-- 0 -->
      <g transform="translate(544.6775 206.398828) scale(0.1 -0.1)">
       <use xlink:href="#DejaVuSans-13"/>
      </g>
     </g>
    </g>
    <g id="ytick_13">
     <g id="line2d_30">
      <g>
       <use xlink:href="#mb353b8be48" x="558.04" y="178.142246" style="stroke: #000000; stroke-width: 0.8"/>
      </g>
     </g>
     <g id="text_32">
      <!-- 25 -->
      <g transform="translate(538.315 181.941074) scale(0.1 -0.1)">
       <use xlink:href="#DejaVuSans-15"/>
       <use xlink:href="#DejaVuSans-18" transform="translate(63.625 0)"/>
      </g>
     </g>
    </g>
    <g id="ytick_14">
     <g id="line2d_31">
      <g>
       <use xlink:href="#mb353b8be48" x="558.04" y="153.684493" style="stroke: #000000; stroke-width: 0.8"/>
      </g>
     </g>
     <g id="text_33">
      <!-- 50 -->
      <g transform="translate(538.315 157.483321) scale(0.1 -0.1)">
       <use xlink:href="#DejaVuSans-18"/>
       <use xlink:href="#DejaVuSans-13" transform="translate(63.625 0)"/>
      </g>
     </g>
    </g>
    <g id="ytick_15">
     <g id="line2d_32">
      <g>
       <use xlink:href="#mb353b8be48" x="558.04" y="129.226739" style="stroke: #000000; stroke-width: 0.8"/>
      </g>
     </g>
     <g id="text_34">
      <!-- 75 -->
      <g transform="translate(538.315 133.025567) scale(0.1 -0.1)">
       <defs>
        <path id="DejaVuSans-1a" d="M 525 4666 
L 3525 4666 
L 3525 4397 
L 1831 0 
L 1172 0 
L 2766 4134 
L 525 4134 
L 525 4666 
z
" transform="scale(0.015625)"/>
       </defs>
       <use xlink:href="#DejaVuSans-1a"/>
       <use xlink:href="#DejaVuSans-18" transform="translate(63.625 0)"/>
      </g>
     </g>
    </g>
    <g id="ytick_16">
     <g id="line2d_33">
      <g>
       <use xlink:href="#mb353b8be48" x="558.04" y="104.768985" style="stroke: #000000; stroke-width: 0.8"/>
      </g>
     </g>
     <g id="text_35">
      <!-- 100 -->
      <g transform="translate(531.9525 108.567813) scale(0.1 -0.1)">
       <use xlink:href="#DejaVuSans-14"/>
       <use xlink:href="#DejaVuSans-13" transform="translate(63.625 0)"/>
       <use xlink:href="#DejaVuSans-13" transform="translate(127.25 0)"/>
      </g>
     </g>
    </g>
    <g id="ytick_17">
     <g id="line2d_34">
      <g>
       <use xlink:href="#mb353b8be48" x="558.04" y="80.311232" style="stroke: #000000; stroke-width: 0.8"/>
      </g>
     </g>
     <g id="text_36">
      <!-- 125 -->
      <g transform="translate(531.9525 84.11006) scale(0.1 -0.1)">
       <use xlink:href="#DejaVuSans-14"/>
       <use xlink:href="#DejaVuSans-15" transform="translate(63.625 0)"/>
       <use xlink:href="#DejaVuSans-18" transform="translate(127.25 0)"/>
      </g>
     </g>
    </g>
    <g id="ytick_18">
     <g id="line2d_35">
      <g>
       <use xlink:href="#mb353b8be48" x="558.04" y="55.853478" style="stroke: #000000; stroke-width: 0.8"/>
      </g>
     </g>
     <g id="text_37">
      <!-- 150 -->
      <g transform="translate(531.9525 59.652306) scale(0.1 -0.1)">
       <use xlink:href="#DejaVuSans-14"/>
       <use xlink:href="#DejaVuSans-18" transform="translate(63.625 0)"/>
       <use xlink:href="#DejaVuSans-13" transform="translate(127.25 0)"/>
      </g>
     </g>
    </g>
    <g id="ytick_19">
     <g id="line2d_36">
      <g>
       <use xlink:href="#mb353b8be48" x="558.04" y="31.395724" style="stroke: #000000; stroke-width: 0.8"/>
      </g>
     </g>
     <g id="text_38">
      <!-- 175 -->
      <g transform="translate(531.9525 35.194552) scale(0.1 -0.1)">
       <use xlink:href="#DejaVuSans-14"/>
       <use xlink:href="#DejaVuSans-1a" transform="translate(63.625 0)"/>
       <use xlink:href="#DejaVuSans-18" transform="translate(127.25 0)"/>
      </g>
     </g>
    </g>
   </g>
   <g id="patch_133">
    <path d="M 558.04 202.6 
L 558.04 25.917188 
" style="fill: none; stroke: #000000; stroke-width: 0.8; stroke-linejoin: miter; stroke-linecap: square"/>
   </g>
   <g id="patch_134">
    <path d="M 781.2 202.6 
L 781.2 25.917188 
" style="fill: none; stroke: #000000; stroke-width: 0.8; stroke-linejoin: miter; stroke-linecap: square"/>
   </g>
   <g id="patch_135">
    <path d="M 558.04 202.6 
L 781.2 202.6 
" style="fill: none; stroke: #000000; stroke-width: 0.8; stroke-linejoin: miter; stroke-linecap: square"/>
   </g>
   <g id="patch_136">
    <path d="M 558.04 25.917188 
L 781.2 25.917188 
" style="fill: none; stroke: #000000; stroke-width: 0.8; stroke-linejoin: miter; stroke-linecap: square"/>
   </g>
   <g id="text_39">
    <!-- IC3 -->
    <g transform="translate(659.842812 19.917188) scale(0.12 -0.12)">
     <use xlink:href="#DejaVuSans-2c"/>
     <use xlink:href="#DejaVuSans-26" transform="translate(29.5 0)"/>
     <use xlink:href="#DejaVuSans-16" transform="translate(99.328125 0)"/>
    </g>
   </g>
  </g>
 </g>
 <defs>
  <clipPath id="p02035815d8">
   <rect x="37.24" y="25.917188" width="223.16" height="176.682812"/>
  </clipPath>
  <clipPath id="pb33d7f64c3">
   <rect x="297.64" y="25.917188" width="223.16" height="176.682812"/>
  </clipPath>
  <clipPath id="p95c23a8bd1">
   <rect x="558.04" y="25.917188" width="223.16" height="176.682812"/>
  </clipPath>
 </defs>
</svg>
